<svg xmlns="http://www.w3.org/2000/svg" width="65" height="74.855" viewBox="0 0 65 74.855">
  <path id="_13_Bookmark" data-name="13 Bookmark" d="M60.013,74.855a4.927,4.927,0,0,1-3.526-1.476L36.023,58.625a4.938,4.938,0,0,0-7.048,0L8.511,73.378a4.942,4.942,0,0,1-5.433,1.092A5.034,5.034,0,0,1,0,69.806V8.42A8.376,8.376,0,0,1,8.312,0H56.685A8.377,8.377,0,0,1,65,8.42V69.806a5.041,5.041,0,0,1-3.08,4.665A4.909,4.909,0,0,1,60.013,74.855ZM32.377,38.723h0l7.171,4.414a1.991,1.991,0,0,0,2.172-.116,2.051,2.051,0,0,0,.8-2.047L40.609,32.3l6.179-5.163a2.066,2.066,0,0,0,.6-2.12,2.022,2.022,0,0,0-1.652-1.439l-7.77-.837-3.792-8.116a2,2,0,0,0-3.593,0l-3.795,8.116-7.77.837a2.03,2.03,0,0,0-1.657,1.437,2.064,2.064,0,0,0,.6,2.123L24.15,32.3l-1.915,8.673a2.058,2.058,0,0,0,.8,2.047,1.991,1.991,0,0,0,2.172.116l7.163-4.414Z" fill="#a26723"/>
</svg>
