<svg xmlns="http://www.w3.org/2000/svg" width="89.502" height="100.479" viewBox="0 0 89.502 100.479">
  <g id="Group_30" data-name="Group 30" transform="translate(-477.499 -307.479)">
    <path id="Subtraction_6" data-name="Subtraction 6" d="M49.39,99.237,84.865,78.753A9.274,9.274,0,0,0,89.5,70.722V29.756a9.276,9.276,0,0,0-4.637-8.031L49.39,1.242a9.279,9.279,0,0,0-9.275,0L4.638,21.725A9.276,9.276,0,0,0,0,29.756V70.722a9.273,9.273,0,0,0,4.638,8.031L40.115,99.237A9.28,9.28,0,0,0,49.39,99.237Z" transform="translate(477.499 307.48)" fill="#a51b17"/>
    <rect id="Rectangle_19" data-name="Rectangle 19" width="9.526" height="43.819" rx="3" transform="translate(534.374 338.859) rotate(45)" fill="#fff"/>
    <rect id="Rectangle_20" data-name="Rectangle 20" width="9.526" height="43.819" rx="3" transform="translate(541.11 369.844) rotate(135)" fill="#fff"/>
  </g>
</svg>
