<svg xmlns="http://www.w3.org/2000/svg" width="35.864" height="40.263" viewBox="0 0 35.864 40.263">
  <path id="Subtraction_11" data-name="Subtraction 11" d="M17.933,40.263a3.732,3.732,0,0,1-1.858-.5L1.859,31.557A3.724,3.724,0,0,1,0,28.34V11.924A3.729,3.729,0,0,1,1.859,8.7L16.074.5a3.722,3.722,0,0,1,3.716,0L34.006,8.7a3.732,3.732,0,0,1,1.858,3.219V28.34a3.727,3.727,0,0,1-1.858,3.217l-14.216,8.21A3.727,3.727,0,0,1,17.933,40.263ZM10.854,18.226a.978.978,0,0,0-.72.3L8.686,19.97a1.028,1.028,0,0,0,0,1.447l5.167,5.167L15.3,28.03a1.028,1.028,0,0,0,1.446,0l1.446-1.447,11.651-11.65a1.028,1.028,0,0,0,0-1.447L28.4,12.042a1.026,1.026,0,0,0-1.447,0L16.022,22.979l-4.445-4.454A.983.983,0,0,0,10.854,18.226Z" fill="#58be3f"/>
</svg>
