<svg xmlns="http://www.w3.org/2000/svg" width="34.512" height="40.263" viewBox="0 0 34.512 40.263">
  <path id="path" d="M292.477,673.471a17.293,17.293,0,0,1-1.15,23.008,16.2,16.2,0,0,1-12.271,4.985,17.25,17.25,0,0,1-12.271-4.985,16.2,16.2,0,0,1-4.985-12.271,17.25,17.25,0,0,1,4.985-12.271,16.2,16.2,0,0,1,12.271-4.985,17.524,17.524,0,0,1,10.737,3.835l2.684-2.876a17.763,17.763,0,0,1,2.684,2.684Zm-23.008,20.324a12.773,12.773,0,0,0,9.395,4.026,12.472,12.472,0,0,0,9.395-4.026,13.475,13.475,0,0,0,3.835-9.587,12.716,12.716,0,0,0-3.835-9.395,13.355,13.355,0,0,0-18.79,18.981ZM284.616,661.2v3.835h-11.5V661.2Zm-7.669,24.925v-11.5h3.835v11.5Z" transform="translate(-261.8 -661.2)" fill="gray"/>
</svg>
